<?xml version="1.0" standalone="no"?>
<!DOCTYPE svg PUBLIC "-//W3C//DTD SVG 20010904//EN"
 "http://www.w3.org/TR/2001/REC-SVG-20010904/DTD/svg10.dtd">
<svg version="1.0" xmlns="http://www.w3.org/2000/svg"
 width="700.000000pt" height="700.000000pt" viewBox="0 0 700.000000 700.000000"
 preserveAspectRatio="xMidYMid meet">
<metadata>
Created by potrace 1.14, written by Peter Selinger 2001-2017
</metadata>
<g transform="translate(0.000000,700.000000) scale(0.100000,-0.100000)"
fill="#000000" stroke="none">
<path d="M1249 6621 c-1 -3 -3 -1093 -4 -2421 -2 -2155 -5 -2561 -20 -2641 -2
-11 -7 -47 -10 -78 -14 -127 -74 -321 -128 -411 -76 -127 -196 -218 -357 -270
-118 -38 -229 -51 -472 -53 l-143 -2 0 -285 0 -285 235 0 c230 0 340 6 450 25
30 5 69 11 85 14 79 12 235 59 329 99 303 129 514 356 637 689 42 116 90 317
105 443 2 22 6 54 8 70 17 117 20 523 20 2680 l1 2430 -367 1 c-203 1 -369 -2
-369 -5z"/>
<path d="M3159 6600 c-4 -134 -1 -5019 4 -5026 3 -5 143 -9 319 -8 l313 0 5
2112 5 2112 113 -223 c62 -122 163 -321 225 -442 62 -121 180 -350 261 -510
82 -159 192 -375 246 -480 107 -209 262 -511 450 -880 67 -132 166 -325 220
-430 54 -104 150 -293 215 -420 65 -126 164 -320 220 -430 56 -110 126 -246
154 -302 29 -57 58 -104 64 -104 7 -1 207 -2 444 -3 281 -1 434 3 436 9 2 6 3
1144 2 2530 l0 2520 -313 0 c-202 0 -316 -3 -321 -10 -4 -5 -8 -952 -7 -2103
1 -1152 -1 -2095 -4 -2097 -3 -2 -28 40 -55 93 -122 237 -314 611 -455 887
-84 165 -194 381 -245 480 -51 99 -150 293 -220 430 -70 138 -174 340 -230
450 -56 110 -147 288 -202 395 -55 107 -161 314 -236 460 -201 393 -410 802
-468 915 l-51 100 -444 0 -444 0 -1 -25z"/>
</g>
</svg>
